<svg xmlns="http://www.w3.org/2000/svg" width="20" height="20" viewBox="0 0 20 20" fill="none">
    <g clip-path="url(#clip0_1_243)">
        <path d="M19.9774 7.71618C19.9053 7.49574 19.6889 7.35748 19.3286 7.30144L13.2945 6.42409L10.5902 0.954913C10.4217 0.626354 10.2255 0.462158 10.0012 0.462158C9.76884 0.462158 9.57248 0.626354 9.41228 0.954913L6.70765 6.42409L0.673516 7.30144C0.31296 7.35752 0.0965586 7.49574 0.0245232 7.71618C-0.0474281 7.93662 0.0446476 8.175 0.301003 8.43144L4.67634 12.6865L3.64263 18.6965C3.60263 18.9611 3.62659 19.1669 3.71483 19.3154C3.80291 19.4638 3.93923 19.5379 4.12351 19.5379C4.25979 19.5379 4.42003 19.4899 4.60431 19.3933L10.0015 16.5565L15.3984 19.3933C15.5827 19.4896 15.7431 19.5379 15.8793 19.5379C16.0638 19.5379 16.2002 19.4638 16.2881 19.3154C16.376 19.1669 16.4001 18.9611 16.36 18.6965L15.3264 12.6865L19.6894 8.43144C19.9539 8.175 20.05 7.93662 19.9774 7.71618ZM14.2562 11.5806L13.6672 12.1457L13.8116 12.939L14.5327 17.2063L10.7105 15.1869L10.0012 14.814V3.23874L11.9124 7.10925L12.2727 7.83036L13.0663 7.9506L17.3456 8.57555L14.2562 11.5806Z" fill="#FFDD2B"/>
    </g>
    <defs>
        <clipPath id="clip0_1_243">
            <rect width="20" height="20" fill="white"/>
        </clipPath>
    </defs>
</svg>